<svg xmlns="http://www.w3.org/2000/svg" viewBox="0 0 1600 700" preserveAspectRatio="xMidYMid slice" role="img" aria-label="Abstrakter, weich fließender Hintergrund in warmen Haartönen">
  <rect width="1600" height="700" fill="#2a211c"/>
  <path d="M0,120 C300,40 500,220 800,140 C1100,60 1300,240 1600,140 L1600,0 L0,0 Z" fill="#3a2c22" opacity="0.9"/>
  <path d="M0,260 C260,180 480,340 780,260 C1080,180 1320,360 1600,280 L1600,120 C1300,220 1100,40 800,120 C500,200 300,20 0,100 Z" fill="#4a3324" opacity="0.85"/>
  <path d="M0,420 C280,340 520,500 820,420 C1120,340 1340,520 1600,440 L1600,260 C1320,360 1080,180 780,260 C480,340 260,180 0,260 Z" fill="#6b4226" opacity="0.7"/>
  <path d="M0,560 C300,480 540,640 840,560 C1140,480 1360,640 1600,560 L1600,440 C1340,520 1120,340 820,420 C520,500 280,340 0,420 Z" fill="#8a5a34" opacity="0.55"/>
  <path d="M0,700 C300,620 560,700 860,640 C1160,580 1360,700 1600,660 L1600,560 C1360,640 1140,480 840,560 C540,640 300,480 0,560 Z" fill="#d9a054" opacity="0.35"/>
</svg>
