<svg xmlns="http://www.w3.org/2000/svg" viewBox="0 0 300 340" role="img" aria-label="Illustration einer kurzen dunkelbraunen Herrenperücke, Modell Natural">
  <rect width="300" height="340" rx="20" fill="#f7f2ec"/>
  <ellipse cx="150" cy="298" rx="86" ry="14" fill="#e7ddd0" opacity="0.6"/>
  <path d="M64,338 C64,258 98,226 150,226 C202,226 236,258 236,338 Z" fill="#33302e"/>
  <rect x="132" y="152" width="36" height="48" rx="14" fill="#dcaa7c"/>
  <ellipse cx="150" cy="130" rx="52" ry="58" fill="#e2b184"/>
  <path d="M98,124 C98,64 202,64 202,124 C202,138 196,150 188,157 C170,143 130,143 112,157 C104,150 98,138 98,124 Z" fill="#3c2a1e"/>
  <path d="M150,68 L150,120" stroke="#241811" stroke-width="3" fill="none" stroke-linecap="round"/>
  <circle cx="150" cy="170" r="120" fill="none" stroke="#b8794a" stroke-width="2" opacity="0.12"/>
</svg>
