<svg xmlns="http://www.w3.org/2000/svg" viewBox="0 0 300 340" role="img" aria-label="Illustration eines grau melierten Herren-Toupets, Modell Comfort">
  <rect width="300" height="340" rx="20" fill="#f7f2ec"/>
  <ellipse cx="150" cy="298" rx="86" ry="14" fill="#e7ddd0" opacity="0.6"/>
  <path d="M64,338 C64,258 98,226 150,226 C202,226 236,258 236,338 Z" fill="#33302e"/>
  <rect x="132" y="152" width="36" height="48" rx="14" fill="#dcaa7c"/>
  <ellipse cx="150" cy="130" rx="52" ry="58" fill="#e2b184"/>
  <path d="M100,128 C96,150 100,166 112,176 C108,152 110,132 118,118 C126,126 116,150 122,168" fill="none" stroke="#7d746c" stroke-width="10" stroke-linecap="round" opacity="0.85"/>
  <path d="M200,128 C204,150 200,166 188,176 C192,152 190,132 182,118 C174,126 184,150 178,168" fill="none" stroke="#7d746c" stroke-width="10" stroke-linecap="round" opacity="0.85"/>
  <path d="M112,100 C112,68 188,68 188,100 C188,112 182,120 172,124 C158,112 142,112 128,124 C118,120 112,112 112,100 Z" fill="#918879"/>
  <ellipse cx="150" cy="98" rx="38" ry="30" fill="none" stroke="#f7f2ec" stroke-width="2" stroke-dasharray="4 4" opacity="0.7"/>
  <circle cx="150" cy="170" r="120" fill="none" stroke="#b8794a" stroke-width="2" opacity="0.12"/>
</svg>
